<svg width="2303" height="305" viewBox="0 0 2303 305" fill="none" xmlns="http://www.w3.org/2000/svg">
<path d="M0.900696 82.1914H280.961C281.161 82.1914 281.251 82.3413 281.251 82.6313V130.952C281.251 131.242 281.151 131.392 280.961 131.392H165.531V292.352C165.531 292.642 165.381 292.792 165.091 292.792H116.631C116.431 292.792 116.341 292.642 116.341 292.352V131.392H0.910706C0.620706 131.392 0.470703 131.242 0.470703 130.952V82.6313C0.470703 82.3413 0.620706 82.1914 0.910706 82.1914H0.900696Z" fill="#F15A29"/>
<path d="M308.861 82.332C358.201 82.432 399.031 82.4819 431.341 82.4819H531.351C533.701 82.4819 536.641 82.432 540.161 82.332C545.251 82.332 551.911 84.0921 560.131 87.6221C564.441 89.5821 569.381 93.3017 574.961 98.7817C584.551 109.262 589.351 121.252 589.351 134.762V160.172C589.351 174.762 583.481 187.632 571.731 198.792C563.801 205.452 555.671 209.562 547.351 211.132C544.121 211.912 538.731 212.302 531.201 212.302H509.021C542.501 245.882 569.231 272.662 589.201 292.632V292.782H519.151L438.381 212.302H357.901V292.342C357.901 292.632 357.751 292.782 357.461 292.782H309.141C308.851 292.782 308.701 292.632 308.701 292.342V82.772L308.851 82.332H308.861ZM535.611 131.682H357.911V162.812H536.931C539.081 162.812 540.161 161.542 540.161 158.992V134.912C540.161 133.342 539.281 132.222 537.521 131.532L535.611 131.682Z" fill="#F15A29"/>
<path d="M617.701 82.1914H670.571C671.061 82.2914 671.301 82.5314 671.301 82.9214V292.051C671.301 292.541 671.061 292.781 670.571 292.781H617.701C617.211 292.781 616.971 292.541 616.971 292.051V82.9214C617.071 82.4314 617.311 82.1914 617.701 82.1914Z" fill="#F15A29"/>
<path d="M1009.15 82.5508H1057.47C1057.76 82.5508 1057.91 82.7012 1057.91 82.9912V163.031H1240.16V82.9912C1240.26 82.7012 1240.4 82.5508 1240.6 82.5508H1288.92C1289.21 82.5508 1289.36 82.7012 1289.36 82.9912V292.561C1289.36 292.851 1289.21 293.001 1288.92 293.001H1240.6C1240.31 293.001 1240.16 292.851 1240.16 292.561V212.521H1057.91V292.561C1057.91 292.851 1057.76 293.001 1057.47 293.001H1009.15C1008.86 293.001 1008.71 292.851 1008.71 292.561V82.9912C1008.71 82.7012 1008.86 82.5508 1009.15 82.5508Z" fill="#1D77BA"/>
<path d="M1318 82.4102H1370.87C1371.36 82.5102 1371.6 82.7501 1371.6 83.1401V292.27C1371.6 292.76 1371.36 293 1370.87 293H1318C1317.51 293 1317.27 292.76 1317.27 292.27V83.1401C1317.37 82.6501 1317.61 82.4102 1318 82.4102Z" fill="#1D77BA"/>
<path d="M1405.53 82.5508H1685.3C1685.59 82.5508 1685.74 82.7012 1685.74 82.9912V131.311C1685.74 131.601 1685.59 131.751 1685.3 131.751H1453.85V163.031H1636.39C1636.68 163.131 1636.83 163.271 1636.83 163.471V212.081C1636.83 212.371 1636.68 212.521 1636.39 212.521H1453.85V243.801H1685.3C1685.59 243.901 1685.74 244.041 1685.74 244.241V292.561C1685.74 292.851 1685.59 293.001 1685.3 293.001H1405.53C1405.24 293.001 1405.09 292.851 1405.09 292.561V82.9912C1405.09 82.7012 1405.24 82.5508 1405.53 82.5508Z" fill="#1D77BA"/>
<path d="M1713.78 82.4102H1762.1C1762.39 82.4102 1762.54 82.5601 1762.54 82.8501V243.81H1993.84C1994.04 243.81 1994.13 243.96 1994.13 244.25V292.57C1994.13 292.86 1994.03 293.01 1993.84 293.01H1713.78C1713.49 293.01 1713.34 292.86 1713.34 292.57V82.8599C1713.34 82.5699 1713.49 82.4199 1713.78 82.4199V82.4102Z" fill="#1D77BA"/>
<path d="M2022.04 82.2617H2250.11C2267.34 82.2617 2281.73 89.7519 2293.29 104.732C2299.56 114.132 2302.69 124.122 2302.69 134.692V240.572C2302.69 257.702 2295.2 272.052 2280.22 283.602C2270.82 289.872 2260.79 293.002 2250.11 293.002H2022.04C2021.75 293.002 2021.6 292.852 2021.6 292.562V82.7021C2021.6 82.4121 2021.75 82.2617 2022.04 82.2617ZM2070.79 131.462V243.812H2249.96C2252.31 243.522 2253.48 242.342 2253.48 240.292V134.992C2253.09 132.642 2251.91 131.472 2249.96 131.472H2070.79V131.462Z" fill="#1D77BA"/>
<path d="M739.621 152.971C743.741 164.211 750.291 179.051 760.761 195.041C762.901 198.321 772.481 212.731 788.721 229.161C799.181 239.731 814.811 253.591 836.351 266.591C837.241 267.281 838.691 268.191 840.501 268.181C842.471 268.181 843.921 267.051 844.511 266.641C897.621 230.131 933.341 181.041 951.801 119.291C953.181 114.671 954.711 120.831 950.351 118.591C868.191 76.4308 789.021 81.0108 712.781 133.381C711.601 134.191 710.371 134.931 707.921 136.501C705.641 126.591 702.831 117.391 701.501 107.971C699.361 92.8512 698.311 77.5811 696.541 62.4111C695.961 57.4511 695.171 46.3011 699.681 43.9111C738.191 23.5111 778.961 11.5809 822.591 8.98093C878.941 5.61093 931.681 17.6207 981.401 44.0107C985.631 46.2607 987.621 48.791 986.791 53.601C986.301 56.431 986.461 59.3707 986.281 62.2607C986.031 66.1707 985.751 70.0912 985.411 74.9912C983.261 73.8212 981.541 72.9612 979.891 71.9712C934.011 44.4512 884.271 31.4912 830.881 33.2212C793.681 34.4312 758.201 43.3309 724.481 59.1909C720.951 60.8509 721.851 71.2008 722.371 75.1108C723.261 81.8308 723.801 88.5908 724.381 94.3808C742.371 87.7008 759.531 79.9809 777.461 74.9409C826.331 61.2009 874.991 62.7909 923.161 79.4609C942.831 86.2709 961.101 95.551 978.561 106.771C982.861 109.531 983.731 112.151 982.661 116.831C972.621 160.831 962.961 172.641 962.961 172.641C952.431 190.871 940.311 211.581 918.681 235.481C914.451 240.161 918.291 235.631 891.831 261.851C891.831 261.851 868.741 284.731 844.651 296.061C842.401 297.121 840.211 297.071 840.211 297.071C840.211 297.071 838.241 297.021 836.281 296.091C797.691 277.721 755.021 229.691 755.021 229.691C742.421 214.081 731.661 196.161 722.151 174.341C719.971 169.351 720.721 166.401 724.951 163.541C729.891 160.191 734.661 156.581 739.621 153.011V152.971Z" fill="#1D77BA" stroke="#1D77BA" stroke-width="15.3" stroke-miterlimit="10"/>
</svg>
